<svg height="640pt" viewBox="-30 0 640 640" width="640pt" xmlns="http://www.w3.org/2000/svg"><path d="m300.585938 101.449219-15.308594-101.449219h-224.601563c-33.820312 0-60.675781 27.554688-60.675781 61.371094v424.71875c0 33.816406 26.855469 60.8125 60.675781 60.8125h213.054688l153.492187-232.402344v-165.734375zm0 0" fill="#00acea"/><path d="m285.277344.140625 141.527344 148.625h-94.210938c-26.164062 0-47.316406-21.152344-47.316406-47.316406zm0 0" fill="#00efd1"/><g fill="#083863"><path d="m293.769531 332.59375c0-7.652344-6.265625-13.917969-13.917969-13.917969h-181.324218c-7.652344 0-13.917969 6.265625-13.917969 13.917969 0 7.65625 6.265625 13.914062 13.917969 13.914062h181.324218c7.796876 0 13.917969-6.257812 13.917969-13.914062zm0 0"/><path d="m98.527344 276.929688h140.96875c7.652344 0 13.917968-6.261719 13.917968-13.917969 0-7.652344-6.265624-13.914063-13.917968-13.914063h-140.96875c-7.652344 0-13.917969 6.261719-13.917969 13.914063 0 7.65625 6.265625 13.917969 13.917969 13.917969zm0 0"/><path d="m234.066406 389.648438h-135.539062c-7.652344 0-13.917969 6.265624-13.917969 13.914062 0 7.65625 6.265625 13.917969 13.917969 13.917969h135.539062c7.65625 0 13.917969-6.261719 13.917969-13.917969 0-7.648438-6.261719-13.914062-13.917969-13.914062zm0 0"/></g><path d="m426.804688 286.8125c86.28125 12.101562 152.65625 86.136719 152.65625 175.753906 0 97.96875-79.457032 177.433594-177.425782 177.433594-67.351562 0-126.078125-37.574219-156-92.960938-13.636718-25.1875-21.429687-53.992187-21.429687-84.609374 0-97.96875 79.460937-177.429688 177.429687-177.429688 8.351563.140625 16.558594.699219 24.769532 1.8125zm0 0" fill="#fedb41"/><path d="m478.015625 434.597656c-5.429687-5.429687-14.191406-5.429687-19.621094 0-5.425781 5.425782-5.425781 14.195313 0 19.621094l18.507813 18.511719c17.8125 17.949219 17.8125 47.171875 0 65.261719-8.625 8.628906-20.179688 13.359374-32.5625 13.359374-12.386719 0-24.078125-4.730468-32.703125-13.359374l-18.507813-18.648438c-5.429687-5.421875-14.195312-5.421875-19.625 0-5.421875 5.429688-5.421875 14.195312 0 19.625l18.648438 18.648438c14.058594 13.914062 32.707031 21.429687 52.324218 21.429687 19.761719 0 38.273438-7.65625 52.324219-21.570313 28.667969-28.945312 28.53125-75.984374-.136719-104.648437zm0 0" fill="#083863"/><path d="m359.175781 374.480469c12.382813 0 24.070313 4.734375 32.839844 13.359375l18.507813 18.507812c5.429687 5.429688 14.191406 5.429688 19.621093 0 5.425781-5.425781 5.425781-14.195312 0-19.621094l-18.644531-18.644531c-14.058594-13.917969-32.707031-21.433593-52.324219-21.433593-19.761719 0-38.273437 7.652343-52.324219 21.570312-28.667968 28.945312-28.667968 75.980469 0 104.648438l18.503907 18.507812c2.785156 2.785156 6.265625 4.035156 9.882812 4.035156 3.617188 0 7.09375-1.390625 9.878907-4.035156 5.429687-5.429688 5.429687-14.191406 0-19.621094l-18.507813-18.648437c-17.953125-17.8125-17.8125-47.171875 0-65.265625 8.628906-8.625 20.175781-13.359375 32.566406-13.359375zm0 0" fill="#083863"/><path d="m425.691406 500.839844c3.621094 0 7.097656-1.390625 9.878906-4.039063 5.429688-5.425781 5.429688-14.195312 0-19.617187l-47.871093-47.871094c-5.425781-5.425781-14.195313-5.425781-19.617188 0-5.429687 5.421875-5.429687 14.191406 0 19.621094l47.871094 47.867187c2.640625 2.648438 6.257813 4.039063 9.738281 4.039063zm0 0" fill="#083863"/></svg>