<svg height="640pt" viewBox="0 -52 640 640" width="640pt" xmlns="http://www.w3.org/2000/svg"><path d="m253.089844 20.621094 68.394531 86.640625h-174.46875c-31.152344 0-56.371094 25.21875-56.371094 56.371093v371.777344h-34.273437c-31.152344 0-56.371094-25.21875-56.371094-56.378906v-422.660156c0-31.152344 25.21875-56.371094 56.371094-56.371094h153.105468c16.765626 0 32.785157 7.5625 43.613282 20.621094zm0 0" fill="#00efd1"/><path d="m640 160.816406v318.367188c0 31.152344-25.21875 56.371094-56.371094 56.371094h-507.816406v-374.738282c0-31.152344 25.21875-56.371094 56.371094-56.371094h451.445312c31.152344 0 56.371094 25.21875 56.371094 56.371094zm0 0" fill="#00acea"/><g fill="#083863"><path d="m434.378906 290.921875c-5.785156-5.785156-15.128906-5.785156-20.917968 0-5.785157 5.789063-5.785157 15.132813 0 20.917969l19.734374 19.730468c19.140626 19.136719 18.988282 50.296876 0 69.582032-9.195312 9.195312-21.511718 14.238281-34.71875 14.238281-13.203124 0-25.664062-5.042969-34.859374-14.238281l-19.882813-19.730469c-5.785156-5.789063-15.132813-5.789063-20.917969 0-5.785156 5.78125-5.785156 15.132813 0 20.917969l19.882813 19.878906c14.980469 14.832031 34.863281 22.84375 55.777343 22.84375 21.070313 0 40.800782-8.15625 55.78125-22.996094 30.5625-30.855468 30.5625-81.003906 0-111.558594zm0 0"/><path d="m307.539062 226.832031c13.203126 0 25.664063 5.042969 34.863282 14.242188l19.730468 19.730469c5.789063 5.789062 15.132813 5.789062 20.917969 0 5.785157-5.785157 5.785157-15.132813 0-20.917969l-19.882812-19.878907c-14.980469-14.835937-34.863281-22.84375-55.78125-22.84375-21.0625 0-40.792969 8.15625-55.777344 22.992188-30.558594 30.859375-30.558594 81 0 111.5625l19.734375 19.730469c2.960938 2.96875 6.671875 4.300781 10.53125 4.300781s7.5625-1.484375 10.53125-4.300781c5.789062-5.785157 5.789062-15.128907 0-20.917969l-19.730469-19.730469c-19.136719-19.136719-18.988281-50.292969 0-69.574219 9.492188-9.351562 21.808594-14.394531 34.863281-14.394531zm0 0"/><path d="m378.597656 361.539062c3.859375 0 7.570313-1.484374 10.535156-4.304687 5.785157-5.785156 5.785157-15.128906 0-20.914063l-51.03125-51.039062c-5.789062-5.78125-15.132812-5.78125-20.917968 0-5.785156 5.789062-5.785156 15.140625 0 20.921875l51.027344 51.03125c2.671874 2.820313 6.53125 4.304687 10.386718 4.304687zm0 0"/></g></svg>