<?xml version="1.0" encoding="iso-8859-1"?>
<!-- Generator: Adobe Illustrator 19.0.0, SVG Export Plug-In . SVG Version: 6.00 Build 0)  -->
<svg version="1.1" id="Capa_1" xmlns="http://www.w3.org/2000/svg" xmlns:xlink="http://www.w3.org/1999/xlink" x="0px" y="0px"
	 viewBox="0 0 496.485 496.485" style="enable-background:new 0 0 496.485 496.485;" xml:space="preserve">
<circle style="fill:#E1E6E9;" cx="248.242" cy="248.242" r="248.242"/>
<rect x="22.497" y="269.188" style="fill:#FDBE5E;" width="452.267" height="219.539"/>
<g>
	<path style="fill:#193651;" d="M473.988,496.485H22.497c-4.655,0-7.758-3.103-7.758-7.758V269.188c0-4.655,3.103-7.758,7.758-7.758
		h452.267c4.655,0,7.758,3.103,7.758,7.758v219.539C481.745,493.382,478.642,496.485,473.988,496.485z M30.255,480.97h436.752
		V276.945H30.255V480.97z"/>
	<path style="fill:#193651;" d="M487.952,496.485H8.533c-4.655,0-7.758-3.103-7.758-7.758s3.103-7.758,7.758-7.758h480.194
		c4.655,0,7.758,3.103,7.758,7.758S492.606,496.485,487.952,496.485z"/>
</g>
<rect x="50.812" y="298.287" style="fill:#FFFFFF;" width="394.085" height="161.358"/>
<polygon style="fill:#2BA1DB;" points="473.988,269.188 22.497,269.188 49.648,181.527 446.836,181.527 "/>
<path style="fill:#193651;" d="M474.764,276.945L474.764,276.945H22.497c-2.327,0-4.655-1.552-6.206-3.103
	c-1.552-2.327-1.552-4.655-0.776-6.982L43.442,179.2c0.776-3.103,3.879-5.43,7.758-5.43h396.412c3.103,0,6.206,2.327,7.758,5.43
	l25.6,86.109c0.776,0.776,0.776,2.327,0.776,3.879C482.521,273.842,478.642,276.945,474.764,276.945z M32.582,261.43h431.321
	l-23.273-72.145H55.855L32.582,261.43z"/>
<polygon style="fill:#FFFFFF;" points="62.061,239.709 71.37,210.23 425.115,210.23 434.424,239.709 "/>
<rect x="184.63" y="117.915" style="fill:#F16050;" width="127.224" height="151.273"/>
<path style="fill:#193651;" d="M311.855,276.945H184.63c-4.655,0-7.758-3.103-7.758-7.758V117.915c0-4.655,3.103-7.758,7.758-7.758
	h127.224c4.655,0,7.758,3.103,7.758,7.758v151.273C319.612,273.842,316.509,276.945,311.855,276.945z M192.388,261.43h111.709
	V125.673H192.388V261.43z"/>
<rect x="213.333" y="147.394" style="fill:#FFFFFF;" width="69.042" height="92.315"/>
<path style="fill:#4EBE9F;" d="M311.855,117.915L281.6,79.903c-17.067-20.945-49.648-20.945-65.939,0l-30.255,38.012H311.855z"/>
<g>
	<path style="fill:#193651;" d="M311.855,125.673H184.63c-3.103,0-5.43-1.552-6.982-4.655c-1.552-2.327-0.776-6.206,0.776-8.533
		l30.255-38.012c10.085-11.636,24.048-18.618,39.564-18.618s29.479,6.982,39.564,18.618l30.255,38.012
		c1.552,2.327,2.327,5.43,0.776,8.533C318.061,124.121,314.958,125.673,311.855,125.673z M200.921,110.158h95.418l-20.17-25.6
		c-6.982-8.533-16.291-13.188-27.152-13.188c-10.861,0-20.17,4.655-27.152,13.188L200.921,110.158z"/>
	<path style="fill:#193651;" d="M248.242,71.37c-4.655,0-7.758-3.103-7.758-7.758V36.461c0-4.655,3.103-7.758,7.758-7.758
		S256,31.806,256,36.461v27.152C256,68.267,252.121,71.37,248.242,71.37z"/>
</g>
<path style="fill:#E1E6E9;" d="M248.242,377.794c-24.824,0-44.218,20.17-44.218,44.218v66.715h88.436v-66.715
	C292.461,397.964,272.291,377.794,248.242,377.794z"/>
<g>
	<path style="fill:#193651;" d="M292.461,496.485h-88.436c-4.655,0-7.758-3.103-7.758-7.758v-66.715
		c0-28.703,23.273-51.976,51.976-51.976s51.976,23.273,51.976,51.976v66.715C300.218,493.382,297.115,496.485,292.461,496.485z
		 M211.782,480.97h72.921v-58.958c0-20.17-16.291-36.461-36.461-36.461s-36.461,16.291-36.461,36.461L211.782,480.97L211.782,480.97
		z"/>
	<rect x="204.024" y="331.249" style="fill:#193651;" width="15.515" height="14.739"/>
	<rect x="240.485" y="331.249" style="fill:#193651;" width="15.515" height="14.739"/>
	<rect x="276.945" y="331.249" style="fill:#193651;" width="15.515" height="14.739"/>
	<rect x="221.867" y="164.461" style="fill:#193651;" width="15.515" height="14.739"/>
	<rect x="258.327" y="164.461" style="fill:#193651;" width="15.515" height="14.739"/>
	<rect x="221.867" y="207.903" style="fill:#193651;" width="15.515" height="14.739"/>
	<rect x="258.327" y="207.903" style="fill:#193651;" width="15.515" height="14.739"/>
</g>
<g>
	<rect x="389.43" y="327.37" style="fill:#2BA1DB;" width="27.927" height="27.927"/>
	<rect x="347.539" y="327.37" style="fill:#2BA1DB;" width="27.927" height="27.927"/>
	<rect x="389.43" y="370.036" style="fill:#2BA1DB;" width="27.927" height="27.927"/>
	<rect x="347.539" y="370.036" style="fill:#2BA1DB;" width="27.927" height="27.927"/>
	<rect x="121.018" y="327.37" style="fill:#2BA1DB;" width="27.927" height="27.927"/>
	<rect x="79.127" y="327.37" style="fill:#2BA1DB;" width="27.927" height="27.927"/>
	<rect x="121.018" y="370.036" style="fill:#2BA1DB;" width="27.927" height="27.927"/>
	<rect x="79.127" y="370.036" style="fill:#2BA1DB;" width="27.927" height="27.927"/>
</g>
<g>
</g>
<g>
</g>
<g>
</g>
<g>
</g>
<g>
</g>
<g>
</g>
<g>
</g>
<g>
</g>
<g>
</g>
<g>
</g>
<g>
</g>
<g>
</g>
<g>
</g>
<g>
</g>
<g>
</g>
</svg>
